<?xml version="1.0" encoding="utf-8"?>
<!-- Generator: Adobe Illustrator 19.2.0, SVG Export Plug-In . SVG Version: 6.00 Build 0)  -->
<svg version="1.1" id="Layer_1" xmlns="http://www.w3.org/2000/svg" xmlns:xlink="http://www.w3.org/1999/xlink" x="0px" y="0px"
	 viewBox="0 0 207 53" style="enable-background:new 0 0 207 53;" xml:space="preserve">
<style type="text/css">
	.st0{fill:#FFFFFF;}
</style>
<g>
	<path class="st0" d="M41.3,2.3c0-0.6,0.2-1.1,0.6-1.5c0.4-0.4,1-0.7,1.6-0.7c0.6,0,1.2,0.2,1.6,0.6c0.4,0.4,0.6,1,0.6,1.6v33.3
		c0,0.7,0.1,1.2,0.1,1.5c0.1,0.4,0.3,0.8,0.7,1.1c0.1,0.1,0.2,0.3,0.2,0.5c0.1,0.2,0.1,0.4,0.1,0.6c0,0.6-0.2,1-0.6,1.4
		c-0.4,0.4-0.9,0.6-1.4,0.6c-0.3,0-0.7-0.1-1.1-0.2s-0.8-0.4-1.1-0.8s-0.7-1-0.9-1.7c-0.2-0.8-0.4-1.8-0.4-3L41.3,2.3L41.3,2.3z"/>
	<path class="st0" d="M60.9,37.5c1.2,0,2.2-0.2,3.1-0.5c0.9-0.3,1.8-0.7,2.8-1.1c0.1,0,0.2-0.1,0.3-0.1c0.1,0,0.3-0.1,0.5-0.1
		c0.6,0,1,0.2,1.4,0.6c0.4,0.4,0.6,0.8,0.6,1.4c0,0.7-0.3,1.3-1,1.7c-0.7,0.5-1.5,0.8-2.4,1.1c-1,0.3-2,0.5-3,0.6
		c-1.1,0.1-2,0.2-2.7,0.2c-1.6,0-3-0.2-4.3-0.7c-1.3-0.5-2.3-1.1-3.2-2c-0.8-0.8-1.5-1.8-2-3c-0.5-1.1-0.7-2.4-0.7-3.7V21.5
		c0-1.4,0.2-2.6,0.7-3.8s1.1-2.2,2-3s1.9-1.5,3.2-2c1.3-0.5,2.8-0.7,4.5-0.7c3.2,0,5.5,0.8,7,2.5c1.5,1.7,2.3,3.9,2.3,6.7
		c0,2.6-0.7,4.6-2.2,6.1s-3.9,2.2-7.3,2.2c-0.9,0-1.8,0-2.8-0.1c-1-0.1-2-0.2-3-0.4v3.3c0,1.6,0.5,2.8,1.5,3.8S58.9,37.5,60.9,37.5
		 M65.7,21.2c0-1.8-0.4-3.2-1.3-4c-0.9-0.8-2.1-1.2-3.8-1.2c-1.8,0-3.3,0.5-4.3,1.4c-1,0.9-1.5,2.2-1.5,3.8v2.7l-2.8,1l2.8,0.6
		c1.1,0.2,2.1,0.2,3.3,0.3c1.2,0.1,2,0.1,2.6,0.1c1.1,0,1.9-0.1,2.6-0.4c0.7-0.3,1.2-0.6,1.5-1c0.4-0.4,0.6-0.9,0.7-1.5
		C65.7,22.3,65.7,21.7,65.7,21.2"/>
	<path class="st0" d="M85.3,38.7c-0.3,1-0.7,1.6-1.1,2c-0.4,0.4-1,0.6-1.8,0.6c-0.8,0-1.3-0.2-1.8-0.6c-0.4-0.4-0.8-1.1-1.1-2
		l-7.9-24.1c-0.2-0.7-0.1-1.3,0.4-1.8c0.5-0.5,1.1-0.8,1.7-0.8c0.4,0,0.8,0.1,1.2,0.4c0.4,0.2,0.6,0.6,0.8,1.1l6.6,21.2L89,13.6
		c0.1-0.4,0.4-0.8,0.8-1c0.4-0.3,0.8-0.4,1.2-0.4c0.7,0,1.3,0.3,1.7,0.8c0.5,0.5,0.6,1.2,0.4,2L85.3,38.7z"/>
	<path class="st0" d="M107.3,41.4c-1,0-2-0.1-3.1-0.3c-1.1-0.2-2.1-0.5-3.2-0.8V51c0,0.6-0.2,1.1-0.6,1.5c-0.4,0.4-0.9,0.6-1.6,0.6
		c-0.7,0-1.3-0.2-1.6-0.6c-0.4-0.4-0.6-0.9-0.6-1.5V20.2c0-1-0.1-1.7-0.2-2.3c-0.1-0.6-0.4-1.1-0.7-1.7c-0.1-0.2-0.2-0.4-0.3-0.5
		c-0.1-0.1-0.1-0.4-0.1-0.6c0-0.6,0.2-1.1,0.6-1.4s0.9-0.5,1.4-0.5c0.5,0,0.8,0.1,1.2,0.4c0.4,0.2,0.7,0.5,1,1l0,0
		c0.3,0.4,1.1,1.5,1.1,1.5s-0.1-2,0-2.1c1.1-0.5,1.8-0.8,2.9-1.2c1.4-0.5,2.8-0.7,4.3-0.7c3,0,5.2,1,6.7,3c1.5,2,2.3,4.5,2.3,7.7V30
		c0,1.7-0.2,3.2-0.5,4.6c-0.3,1.4-0.8,2.6-1.5,3.6c-0.7,1-1.7,1.8-2.9,2.3C110.6,41.1,109.1,41.4,107.3,41.4 M101.1,36.3
		c0.9,0.4,1.9,0.7,3,0.9c1.1,0.2,2,0.3,2.7,0.3c2.1,0,3.5-0.6,4.3-1.8c0.8-1.2,1.3-3.1,1.3-5.7v-7.3c0-4.5-1.8-6.7-5.5-6.7
		c-1,0-2,0.2-3,0.5c-1.1,0.3-2.1,0.8-3,1.4c0.2,1,0.3,1.7,0.3,2.3L101.1,36.3L101.1,36.3z"/>
	<path class="st0" d="M135.2,21.9c0-4-2-6-6-6c-1,0-1.8,0.1-2.4,0.3s-1.3,0.5-1.9,0.8c-0.1,0-0.3,0.1-0.6,0.2
		c-0.3,0.1-0.6,0.2-0.9,0.2c-0.5,0-0.9-0.2-1.1-0.6c-0.2-0.4-0.4-0.8-0.4-1.3c-0.1-0.6,0.1-1.2,0.6-1.7c0.5-0.5,1.1-0.8,1.8-1.1
		c0.8-0.3,1.6-0.5,2.6-0.7c1-0.1,1.9-0.2,2.9-0.2c3.5,0,6.1,1,7.6,2.9c1.5,1.9,2.3,4.8,2.3,8.5v12.4c0,1.1,0.3,1.7,1,1.7
		c0.1,0,0.1,0,0.2,0c0.1,0,0.1,0,0.2,0c0.5,0,0.9,0.2,1.2,0.6c0.3,0.4,0.4,0.8,0.4,1.3c0,0.7-0.3,1.2-0.8,1.5
		c-0.5,0.3-1.1,0.4-1.7,0.4c-1,0-1.8-0.2-2.5-0.8c-0.7-0.5-1.3-1.2-1.7-2.1c-2.2,2-4.8,3-7.7,3c-2.9,0-5.1-0.8-6.5-2.3
		c-1.4-1.5-2.1-3.6-2.1-6.2v-0.2c0-5.5,3.3-8.3,9.9-8.3c1.8,0,3.5,0.2,5.2,0.7c0,0,0.1,0,0.1,0c0.1,0,0.2,0.1,0.4,0.1l2.1,0.7
		l-2.1-2.1L135.2,21.9L135.2,21.9z M129.5,28.1c-1.2,0-2.1,0.1-2.8,0.4c-0.7,0.2-1.3,0.6-1.7,1c-0.4,0.4-0.7,0.9-0.8,1.5
		c-0.2,0.6-0.2,1.2-0.2,1.8v0.2c0,1.3,0.4,2.4,1.1,3.2c0.7,0.8,2,1.3,3.9,1.3c1.2,0,2.3-0.2,3.3-0.6c1-0.4,2-1,3-1.9v-6.1
		c-1-0.3-1.9-0.5-2.9-0.7C131.3,28.1,130.4,28.1,129.5,28.1"/>
	<path class="st0" d="M156.6,37.4c-0.7,2.2-1.3,4.2-2,6c-0.7,1.8-1.4,3.4-2.3,4.7c-0.9,1.3-2,2.3-3.2,3.1c-1.3,0.8-2.8,1.1-4.6,1.2
		c-0.7,0-1.2-0.2-1.6-0.6s-0.7-0.9-0.7-1.5c0-0.5,0.2-1,0.6-1.4s0.9-0.7,1.5-0.7c0.9,0,1.7-0.2,2.3-0.5c0.7-0.3,1.3-0.7,1.8-1.3
		c0.5-0.6,1-1.3,1.4-2.2c0.3-0.7,0.8-1.8,0.8-1.9c0.1-0.1,0.2-0.5,0.2-0.5l0.1-0.3l0.2-0.6l0-0.1l0-0.1l-8.9-25.8
		c-0.1-0.1-0.1-0.2-0.1-0.4v-0.4c0-0.6,0.2-1.1,0.6-1.5c0.4-0.4,1-0.6,1.6-0.6c0.4,0,0.8,0.1,1.1,0.4s0.6,0.6,0.8,1.1l7,21.4
		l6.1-21.4c0.2-0.5,0.5-0.8,0.8-1.1c0.4-0.2,0.8-0.4,1.2-0.4c0.6,0,1.1,0.2,1.5,0.6c0.5,0.4,0.7,1,0.7,1.6c0,0.2,0,0.4-0.1,0.7
		L156.6,37.4z"/>
</g>
</svg>
